<svg xmlns="http://www.w3.org/2000/svg" width="41.454" height="41.454">
  <g transform="rotate(-45 -310.489 487.851)">
    <circle transform="rotate(.135)" cx="254.948" cy="391.148" r="20.354" stroke="#030000" stroke-width=".75" fill="none"/>
    <path d="M264.894 380.928c-5.976-6.005-15.688-6.028-21.693-.051-6.004 5.976-6.027 15.688-.05 21.693 5.976 6.005 15.69 6.03 21.695.054 6.005-5.976 6.025-15.691.048-21.696zm-.608 1.555c4.657 5.149 4.75 12.95.291 18.205l-3.548-3.565a8.826 8.826 0 0 0-.297-11.103l3.554-3.537zm-1.249-1.219l-3.217 3.203a2.169 2.169 0 0 0-.328-.559 2.415 2.415 0 0 0-.22-.25c-.746-.802-1.994-.896-2.962-.433l-.003.003a8.824 8.824 0 0 0-7.62 1.495l-3.55-3.569c5.171-4.347 12.773-4.305 17.9.11zm-3.353 5.799a7.35 7.35 0 0 1 .293 9.003l-2.962-2.977c.374-.378.746-.757 1.116-1.14.468-.667.055-1.508-.56-1.886l-.448-.45 2.561-2.55zm-4.675-2.596c-.401.735.205 1.866-.564 2.384-.7-.489-1.206-1.25-1.876-1.796a.963.963 0 0 0-.727-.325 7.374 7.374 0 0 1 3.167-.263zm-4.181.663c-.13.107-.245.229-.336.358l-.524.52-.232-.232a7.28 7.28 0 0 1 1.091-.646zm4.047 4.956a.834.834 0 0 1 .218.743.844.844 0 0 1 .702.234c.344.345.309.94-.08 1.327a1.012 1.012 0 0 1-.978.277l-1.58.014.147-1.665a.977.977 0 0 1 .284-.869c.374-.372.95-.4 1.287-.061zm-11.052-7.678l3.537 3.554a8.79 8.79 0 0 0-2.097 4.73l-.812.808c.6.31.426.73-.032 1.051l-3.536 3.52c-1.513-4.62-.532-9.877 2.94-13.663zm4.583 4.605l.275.277-1.283 1.277c.264-.548.6-1.072 1.008-1.554zm7.325 7.36l3.004 3.017a7.354 7.354 0 0 1-8.065.907l.274-.273c.566 1.09 1.219-.223 1.77-.654 1-1.004 2.011-1.997 3.017-2.997zm4.05 4.068l3.536 3.554c-4.871 4.426-12.135 4.753-17.36.993l3.624-3.607a8.834 8.834 0 0 0 10.2-.94zm-12.456-4.053l1.257 1.263-.47.469a7.308 7.308 0 0 1-.905-1.615l.118-.117zm-1.24 1.234a8.77 8.77 0 0 0 .97 1.55l-3.563 3.545c-.394-.462-.75-.946-1.074-1.444l3.668-3.651z" fill="#070000"/>
  </g>
</svg>
