<svg xmlns="http://www.w3.org/2000/svg" width="41.454" height="41.454">
  <g transform="rotate(-45 -333.218 432.978)">
    <circle transform="rotate(.135)" cx="209.489" cy="391.256" r="20.354" stroke="#030000" stroke-width=".75" fill="none"/>
    <path d="M222.665 389.768c-.008-.008-.015-.014-.021-.015-.183-.036-1.048 1.325-1.337 2.103-.329.886-.272 1.681.174 2.408.108.176.208.335.221.353.164.22 1.009-.651 1.267-1.307.217-.55.278-1.229.172-1.908-.095-.607-.36-1.508-.476-1.634zm-12.048-12.105c-.126-.116-1.023-.386-1.633-.485-.671-.108-1.35-.052-1.903.157-.486.184-1.3.86-1.334 1.107-.022.159.185.32.722.566.62.284 1.286.281 2.084-.009.675-.245 2.109-1.153 2.078-1.315 0-.006-.006-.013-.014-.02zm-3.641-2.333l-.004-.003c-.116-.057-1.113.32-1.694.638-1.216.668-1.976 1.649-2.05 2.643-.012.17-.004.329.018.351.07.07.876-.042 1.204-.168.713-.273 1.426-.949 1.877-1.777.36-.663.725-1.613.649-1.685zm18.004 18.089c-.08-.078-1.219.362-1.791.694-1.128.653-1.753 1.537-1.86 2.63-.018.193-.017.367.002.387.072.072.816-.038 1.115-.163.725-.305 1.457-1.04 1.945-1.951.284-.53.64-1.491.592-1.593a.018.018 0 0 0-.004-.005zm-17.473-13.56c-.078-.075-.27-.168-.62-.331-1.25-.58-2.49-.602-3.434-.06-.4.23-.774.576-.781.722-.005.098.464.507.828.722l.176.105-.214-.026c-.31-.038-.942-.04-1.73-.006-.766.033-1.346.217-1.884.597-.357.252-.858.813-.94 1.053-.058.167-.093.133.345.333 1.24.567 2.446.166 4.107-1.363.533-.49.595-.531.767-.503.375.06.925.018 1.362-.104.511-.144 1.574-.638 1.9-.883.146-.11.206-.171.118-.256zm12.938 13c-.082-.079-.14-.018-.248.125-.265.351-.72 1.29-.866 1.793-.153.52-.206 1.079-.137 1.445.036.19.014.268-.098.347-.22.154-1.23 1.365-1.497 1.795-.597.965-.69 1.774-.312 2.697.083.201.164.382.18.402.083.098.418-.12.868-.562.462-.455.504-.516.717-1.054.166-.422.233-.747.253-1.237.032-.808.03-1.418-.004-1.703l-.026-.213.122.206c.067.113.259.345.426.513l.304.306.235-.205c.307-.268.642-.846.771-1.33.202-.76.052-1.877-.37-2.752-.157-.326-.247-.504-.319-.573zm-17.598-16.082c-.019-.017-.048-.016-.09-.007-.083.016-.393.185-.689.376-1.571 1.011-2.33 2.063-2.331 3.229 0 .277.027.532.062.567.035.035.166.048.291.028.766-.123 1.758-.946 2.164-1.794.241-.505.42-1.116.562-1.922.056-.32.07-.44.03-.477zm20.667 20.765c-.037-.04-.158-.027-.478.028-2.069.355-3.108 1.047-3.636 2.424-.121.317-.15.491-.09.55.046.047.297.089.557.092.876.01 1.784-.47 2.544-1.343.44-.506 1.066-1.443 1.11-1.661.008-.043.009-.072-.007-.09zm-2.01 4.038l-.07-.016c-.066-.076-.304-.124-.759-.202-.947-.162-1.807-.115-2.435.13-.462.182-.542.238-1.014.71-.326.323-.535.577-.571.69-.068.213-.008.253.726.483.597.188 1.063.159 1.757-.11.494-.193 1.307-.72 1.983-1.286.204-.17.323-.278.332-.355l.05-.044zm-22.712-22.805l-.027.03c-.038-.01-.082.014-.134.066-.27.269-.911 1.114-1.174 1.549-.652 1.075-.749 1.799-.374 2.792.08.21.16.397.177.416.09.098.42-.118.895-.587.477-.471.531-.547.715-1.01.25-.627.3-1.486.142-2.434-.075-.455-.133-.689-.206-.766l-.015-.056zm18.01 20.38c-.094-.094-.929.549-1.65 1.271-.563.564-.694.727-.848 1.054-.26.556-.333 1.028-.246 1.596.042.273.108.512.145.531.037.02.235-.026.44-.1.329-.121.435-.2.936-.699.545-.542.573-.583.788-1.128.324-.82.59-2.369.435-2.525zm-15.626-15.662c-.164-.15-1.608.068-2.428.384-.52.2-.685.3-1.05.626-.484.433-.819.894-.93 1.282-.04.142-.056.275-.035.296.02.021.2.069.397.105.793.147 1.506-.02 2.217-.52.583-.41 1.821-1.845 1.844-2.137a.042.042 0 0 0-.015-.036zm17.66 21.203c-.08-.075-.247-.182-.515-.36-1.45-.956-2.49-1.11-3.607-.531-.437.226-.65.416-.658.585-.008.168.506.662.903.869.185.096.505.205.711.243.75.138 2.045-.09 2.929-.515.106-.05.187-.087.237-.121l.001-.001c.013-.003.02-.008.021-.017.051-.044.049-.085-.022-.152zM195.648 381.4c-.113-.101-.158.022-.296.313-.588 1.239-.707 2.658-.295 3.518.197.41.721.978.896.971.17-.007.36-.22.589-.655.583-1.115.435-2.156-.515-3.61-.193-.295-.302-.468-.38-.537zm3.516 5.07c-.082-.08-1.227.164-1.838.391-1.21.45-2.04 1.25-2.348 2.26-.056.185-.085.352-.064.373.057.058.663.115.971.091 1.03-.08 2.094-.962 2.97-2.463.174-.3.33-.556.343-.57.014-.013-.002-.05-.034-.082zm14.626 14.698c-.028-.025-.057-.036-.07-.024-.013.014-.272.168-.575.343-1.825 1.054-2.617 2.2-2.461 3.563.02.182.068.346.106.364.121.057.873-.256 1.243-.518.677-.48 1.2-1.267 1.496-2.247.2-.664.337-1.402.273-1.47a1.274 1.274 0 0 1-.012-.01zm-20.009-17.01c-.018-.016-.033-.023-.048-.019-.04-.031-.067-.046-.075-.038-.115.114-.272.567-.365 1.046-.188.97-.12 1.932.177 2.542.167.342.773.961 1.009 1.03.1.03.241.009.313-.047.178-.136.49-.933.54-1.374.043-.394-.1-1.361-.248-1.661-.104-.212-.879-1.068-1.241-1.402a.568.568 0 0 0-.062-.076zm21.978 22.09c-.399-.391-.985-.908-1.164-.998a1.13 1.13 0 0 0-.358-.112 3.754 3.754 0 0 1-.494-.089c-.47-.11-1.036-.048-1.597.175-.533.211-.688.37-.618.632.034.126.191.317.493.596.385.357.509.431.926.558.552.167 1.372.185 2.134.047.489-.09.947-.245 1.065-.362.024-.024-.148-.213-.387-.447zm-17.144-17.196c-.063-.064-.902.256-1.557.593-.422.217-.583.33-.993.73a3.737 3.737 0 0 0-.409.41c-.336.345-.413.47-.535.772-.09.223-.18.56-.2.749-.021.188-.001.379.043.423.108.11.699.014 1.214-.194.596-.241 1.22-.816 1.644-1.516.328-.541.872-1.888.794-1.967zm12.601 12.664c-.08-.075-1.419.454-1.942.767-.964.58-1.59 1.398-1.756 2.3-.051.276-.05.51 0 .56.12.12.686.05 1.18-.145.367-.146.466-.221 1.023-.775.54-.539.65-.68.897-1.154.344-.66.664-1.491.598-1.553zM198.3 391.682c-.034-.039-.086-.034-.16 0-.243.109-1.625 1.447-1.899 1.839-.512.732-.684 1.436-.543 2.22.035.197.092.388.127.423.096.096.655-.166 1.098-.516.898-.71 1.275-1.558 1.404-3.17.04-.493.039-.724-.027-.796zm10.288 10.337c-.072-.066-.303-.068-.797-.03-1.197.09-1.943.315-2.568.776-.394.29-.872.89-1.058 1.329-.149.348-.132.389.198.482.682.191 1.654-.017 2.386-.513.356-.24 1.734-1.653 1.839-1.884.033-.074.038-.126 0-.16zm-14.497-13.332c-.427-.421-1.297-1.076-1.486-1.069-.094.004-.217.644-.214 1.109.005.67.122 1.34.316 1.803.299.711 1.246 1.499 1.688 1.404.16-.035.19-.069.288-.339.259-.707.178-1.741-.176-2.243-.095-.134-.175-.294-.178-.355-.003-.055-.096-.17-.238-.31zm17.636 17.769c-.51-.514-.941-.776-1.512-.915-.404-.1-1.145-.054-1.557.095-.272.098-.305.126-.34.287-.023.099.025.313.106.475.231.469.788.996 1.274 1.208.474.206 1.132.328 1.817.336.465.005 1.105-.115 1.11-.21.007-.156-.495-.87-.898-1.276zm-13.676-11.473l-.143.202c-.079.112-.277.555-.44.985-.236.623-.303.922-.33 1.473-.035.701.03 1.038.294 1.537a2.4 2.4 0 0 0 .414.525l.268.248.142-.144a.758.758 0 0 0 .15-.152l.047-.049c.639-.649.87-1.688.592-2.655-.144-.502-.533-1.327-.804-1.705l-.19-.266zm7.104 7.163c-.064-.064-.361-.245-.662-.403-1.194-.63-2.12-.765-2.987-.44-.452.17-1.036.58-1.142.8-.112.232.799.9 1.389 1.017.441.088 1.062.065 1.592-.057.549-.126 1.424-.465 1.726-.667.182-.123.19-.144.084-.25zm-10.714-9.526a11.172 11.172 0 0 0-.313-.301c-.562-.528-.619-.564-1.186-.758-.328-.112-.636-.203-.685-.203-.257 0-.057 1.336.328 2.196.207.46.289.573.718.975.415.388.543.47.882.568.384.111.61.123.744.003v-.001a.103.103 0 0 0 .034-.02.182.182 0 0 0 .037-.07.958.958 0 0 0 .093-.355 2.909 2.909 0 0 0-.219-1.405c-.102-.245-.183-.376-.434-.628zm13.19 13.254c-.25-.252-.381-.334-.626-.438-.622-.263-1.564-.32-1.808-.114a.07.07 0 0 0-.017.013c-.005.005-.01.012-.013.02l-.002.001c-.154.186-.122.561.09 1.036.218.491.827 1.05 1.454 1.334.87.393 2.174.595 2.175.336 0-.048-.09-.357-.2-.685-.192-.569-.227-.625-.752-1.19-.12-.128-.216-.23-.3-.314zm-12.05-9.679a.282.282 0 0 0-.09-.069 4.013 4.013 0 0 1-.476-.268 4.05 4.05 0 0 0-.816-.358c-.635-.197-1.63-.336-1.724-.241-.115.114.084.697.432 1.265.612.999 1.445 1.592 2.355 1.677.357.033.773-.068.933-.227.165-.164-.304-1.45-.614-1.779zm8.48 8.521c-.326-.31-1.61-.786-1.775-.622-.34.338-.307 1.247.073 1.988.203.396 1.05 1.16 1.632 1.468.463.246.932.384 1.017.3.074-.074-.093-1.213-.256-1.75a4.066 4.066 0 0 0-.356-.817 4.013 4.013 0 0 1-.266-.476.277.277 0 0 0-.068-.09zm-4.77-3.733c-.207-.21-.408-.244-.69-.119-.307.136-.563.52-.527.792.013.1.099.257.19.35.225.225.48.247.781.065.196-.118.277-.205.362-.396.127-.282.093-.483-.115-.692zm-2.252-1.503c-.31-.316-.736-.542-1.3-.694-.638-.171-1.946-.295-2.048-.193-.125.125.116.629.653 1.364.253.347.963.938 1.32 1.097.708.318 1.544.322 1.886.01a.295.295 0 0 0 .041-.042l.016-.003v-.012c.095-.104.096-.182.04-.415a3.3 3.3 0 0 0-.296-.699 2.018 2.018 0 0 0-.312-.413zm3.725 3.754a2.49 2.49 0 0 0-.91-.552c-.443-.161-.558-.145-.724.104-.294.44-.15 1.572.283 2.217.509.76 2.01 1.823 2.245 1.59.034-.035.04-.38.013-.768-.089-1.242-.366-2.062-.907-2.59z"/>
  </g>
</svg>
