<svg xmlns="http://www.w3.org/2000/svg" width="41.454" height="41.454">
  <g transform="rotate(-45 -255.615 465.122)">
    <circle transform="rotate(.135)" cx="254.84" cy="345.69" r="20.354" stroke="#030000" stroke-width=".75" fill="none"/>
    <path d="M266.017 336.878c-.344-.261-.597-.707-1.05-.783-.207.07-.076.347.05.433.838.92 1.711 1.837 2.245 2.972.432.822.592 1.753.811 2.638 0 .115.127.466-.084.436-.535-.407-.468-1.165-.816-1.695-.338-.806-.517-1.74-1.206-2.346-.395-.422-.744-.922-1.274-1.182-.229.051-.13.33-.013.444.496.681 1.117 1.292 1.45 2.072.45.808.63 1.743.656 2.653-.146.345-.611.277-.908.214-.281-.078-.09-.447-.244-.63-.267-.77-.328-1.656-.933-2.262-.528-.738-1.177-1.374-1.768-2.058-.02-.173.194-.295.32-.356.137.194.238.44.404.627.334.42.702.831 1.113 1.167-.109.228.309.45.38.173.053-.152-.095-.237-.183-.317-.034-.443-.573-.58-.69-.988-.205-.373-.467-.737-.517-1.17.285-.32.578-.674 1-.8.15-.367-.268-.622-.459-.875-.88-.925-1.86-1.756-2.883-2.514-.325-.172-.58-.476-.943-.574a1.513 1.513 0 0 0-1.146-.429c-.443-.073-.856-.25-1.281-.379a5.55 5.55 0 0 0-.837-.561c-.578-.276-1.246-.21-1.848-.09-.54.028-1.121-.168-1.619.129a3.65 3.65 0 0 0-1.464 1.547c-.046.308-.05.652-.302.878-.417.407-1.032.522-1.447.939-.469.423-.918.917-1.536 1.11-.701.37-1.53.4-2.23.79-.81.373-1.645.688-2.493.948-.416.152-.906.442-.901.944-.05.468.245.868.6 1.138.217.216.433.455.515.759-.331.406-.78.766-.87 1.311-.122.336-.4.645-.77.67-.79.323-1.073 1.297-1.872 1.608-.394.144-.866.069-1.203.365-.413.276-.886.68-.856 1.223.189.414-.037.858-.154 1.257-.227.423-.337.913-.241 1.39.057.368.195.75.458 1.018.51.176.911.603 1.03 1.132.127.411.274.821.497 1.187.142.643-.56 1.314-1.191 1.063-.312-.001-.722.16-.788.507.268.92 1.075 1.55 1.809 2.109.608.362 1.247.677 1.774 1.159.293.28.642.487.985.692 1.397 1.134 2.564 2.515 3.86 3.756.579.59 1.128 1.255 1.854 1.659.304.026.408-.343.364-.584.004-.478.011-1.108.481-1.375.346-.107.558.307.774.501.433.411 1.058.415 1.617.45.3.014.498.29.794.34.65.178 1.362.093 1.968-.18.266-.124.427-.378.514-.642.243-.258.66-.02.94-.213.791-.32 1.12-1.267 1.024-2.061-.047-.407.429-.531.723-.644.239-.06.486-.193.534-.456.067-.212.14-.582.45-.487.456.04.933-.19 1.114-.627.092-.144.132-.401.278-.471.534.397 1.037.998 1.751 1.026.57-.027.947-.559 1.073-1.07.514-1.35.894-2.744 1.296-4.129.141-.53.365-1.053.803-1.407.465-.461.84-1.01 1.079-1.619.11-.226.354-.305.59-.293.921-.106 1.912-.575 2.259-1.495.162-.468.377-.936.317-1.443-.034-1.18-.488-2.293-.776-3.429-.333-1.161-.764-2.31-1.516-3.269-.406-.516-.781-1.063-1.242-1.53zm-1.732-.086c-.175-.145-.437.125-.274.292.08.194.41.445.559.199.048-.197-.169-.365-.285-.49zm4.034 6.719c.51.556.53 1.378.515 2.097-.03.242-.343.233-.432.444-.212.323-.46.814-.928.745-.266-.005-.633-.052-.681-.369-.474-.374-.66-.963-.73-1.541-.055-.432-.083-.909.075-1.314.523-.675 1.608-.679 2.18-.062zm-5.383-4.828c.303.276.458.688.752.96.337.261.554.654.787 1.005.457.807.557 1.764.865 2.611-.099.018-.162-.17-.233-.224a.696.696 0 0 0-.725-.346c-.239.018-.603.042-.651-.268-.197-.738-.468-1.503-1.08-2.003-.375-.368-.865-.719-.992-1.25.056-.575.866-.987 1.277-.485zm1.926 4.598c.195.25.19.614.433.837.336.554.199 1.463-.478 1.689-.51.186-.98-.208-1.204-.636-.123-.14-.14-.522-.403-.436-.284.197-.371.627-.75.7a.573.573 0 0 1-.637-.226c-.266-.148-.507.14-.611.353-.244.367-.788.138-.988-.166-.52-.72-.335-1.762.284-2.364.136-.276-.287-.537-.492-.322-.394.332-.935.213-1.394.385-.399.101-.806.222-1.222.183.628-.74 1.316-1.455 2.081-2.05.357-.036.504.392.767.557.298.224.295.608.392.93.2.441.887.583 1.192.173.254-.17.674.033.86-.257.102-.253-.24-.337-.423-.32-.29-.019-.538.118-.811.18-.162.02-.105-.248-.204-.35-.266-.542-.927-.853-1.025-1.474.025-.479.525-.72.813-1.038.569.75 1.422 1.33 1.727 2.245.144.267.394.605.163.905-.085.22-.102.46-.165.688-.058.247.127.623.42.49.3-.147.27-.616.612-.727.332-.17.77-.203 1.063.05zm1.212 3.894c.228.343-.075.732-.246 1.031-.185.441-.54.768-.922 1.044-.673.523-.73 1.436-.948 2.196-.37 1.044-.657 2.131-1.018 3.178-.132.336-.232.703-.423 1-.406.27-.903-.05-1.132-.408-.439-.576-1.08-1.031-1.29-1.747-.166-.11-.225-.385-.013-.49.342-.225.734.103.897.402.111.176.168.431.4.486-.012.28.2.495.327.722.185.229.537-.062.295-.263-.11-.069-.173-.158-.16-.287-.077-.201-.34-.288-.304-.54-.19-.648-.874-1.22-1.57-1.01-.444.112-.73.525-.85.946-.265.217-.626-.012-.928 0-.676-.123-1.37-.007-2.001.25-.306.076-.63-.087-.924-.029.227-.187-.11-.528-.334-.386-.232.087-.193.448.054.476.069.041.215-.067.146.058-.055.198.258.277.219.451-.342.28-.876.377-1.282.193-.184-.091-.224-.294-.242-.471-.116-.266-.031-.568-.006-.825-.12-.24-.41-.033-.593-.104a1.205 1.205 0 0 1-.386-1.044c.132-.374.523-.562.822-.774.13-.074.23.06.166.183-.062.224-.101.516.094.682-.047.15-.04.45.192.37.211-.073.132.24.213.346.051.203.32.484.515.267.117-.274.06-.678-.201-.853-.136-.095-.032-.281-.17-.384-.1-.126.101-.251.008-.389a.839.839 0 0 1-.035-.905c.288-.446.197-.997.283-1.495.06-.267.41-.067.573-.224.6-.257 1.122-.72 1.415-1.3.424-.253.925-.055 1.391-.108.367.043.788.012 1.018-.325.27-.28.647-.528 1.047-.394.845.151 1.672-.198 2.476-.385.177.089.325.303.525.396.598.365 1.401.408 1.987-.003.29-.111.362.363.646.344a.513.513 0 0 1 .269.122zm-12.814-12.812c.119.392-.19.766-.152 1.162-.036.427.172.818.424 1.142.242.62-.226 1.282.054 1.898.121.378.235.77.517 1.064.125.475-.32.845-.348 1.306-.08.301.004.604.021.898a.91.91 0 0 0 .014.937c.037.32.072.662-.056.965-.691-.038-1.51-.017-1.996.56-.275.286-.39.688-.613.999a8.702 8.702 0 0 0-1.049.473c-.234-.047-.414-.263-.668-.246-.315-.104-.646-.074-.959.006-.264.021-.478-.15-.685-.282-.31-.127-.679-.034-.982-.092-.011-.357-.558-.49-.46-.861.23-.455.538-.898.656-1.407.155-.456.042-.949.155-1.409.1-.297.497-.274.65-.534.547-.683.328-1.786-.354-2.296-.302-.17-.62-.323-.936-.466-.238-.104-.594-.06-.656.238-.092.268.133.532.407.517.33.236.873.032 1.077.46.225.37.038 1.014-.435 1.05-.286-.102-.488-.394-.616-.659-.206-.606-.912-.788-1.32-1.22-.217-.214-.511-.439-.593-.722.33-.29.806-.311 1.195-.499 1.128-.378 2.185-.943 3.318-1.315a8.824 8.824 0 0 0 1.78-.899c.503-.235.74-.847 1.286-1.01.224-.226.55-.052.78.073.173.078.38.085.544.168zm8.495 9.48c-.183-.166-.572.111-.363.311.074.043.214.058.07.12-.21.157.03.365.083.534-.014.252.349.32.465.116.098-.128-.017-.276-.08-.369.04-.163-.067-.372-.252-.356.141-.07.223-.248.077-.356zm-9.588-8.277c-.33-.289-.917-.278-1.159.123-.313.37-.448.845-.567 1.302-.444.642-.946 1.261-1.262 1.974-.204.203-.638.279-.634.626.09.222.377.103.52.006.205-.146.472-.202.695-.063.733.347 1.406.822 2.049 1.31.159.24.225.58.536.693.2.135.5.086.587-.155.436-1.01.363-2.147.226-3.214-.13-.607-.283-1.218-.398-1.827-.129-.3-.359-.55-.593-.775zm12.548 12.926c-.476-.425-1.17-.339-1.719-.618-1.07-.38-2.213-.513-3.335-.616-.302-.014-.406.327-.355.57-.036.262.079.562.31.687-.071.208.114.384.116.59.19.658.667 1.3.447 2.017-.04.274-.24.515-.265.778.066.198.337.177.45.032.353-.255.419-.713.627-1.061.424-.444 1.081-.553 1.502-1.006.342-.277.647-.739 1.13-.721.385.216.977.244 1.25-.16.097-.171-.027-.377-.158-.492zm-5.508-4.724c.097.17.163.435.043.59-.193-.175-.473-.333-.533-.604.137-.091.376-.135.49.014zm-7.416-6.909c.47.491.556 1.209.767 1.83.058.314.054.724-.03 1.008-.14-.188-.045-.457-.115-.672-.09-.784-.47-1.496-.769-2.217-.07-.088-.247-.151-.276-.213.182.001.299.153.423.264zm6.419 6.865c-.101.041-.32.073-.378-.009.117-.037.279-.04.378.01zm.812 1.091c.42.489.029 1.225-.466 1.5-.584.36-1.308-.058-1.6-.6-.129-.181-.286-.38-.21-.624.12-.464.546-.935 1.068-.839.432-.02.773.257 1.102.495.033.026.075.04.106.068zm-9.038-8.803c-.369-.103-.714.229-.899.512-.024.231.293.22.426.125.206-.122.573-.224.548-.52a.213.213 0 0 0-.075-.117zm12.448 12.691c.07.503-.404.892-.837 1.04-.225.126-.512.343-.775.211-.212-.292-.27-.666-.44-.98-.042-.169-.134-.52.132-.551.634-.059 1.365-.076 1.92.28zm-11.183-11.22c.232.705.38 1.486.254 2.225-.192.143-.38-.148-.531-.226-.26-.247-.62-.335-.895-.545.051-.616.556-1.069 1.008-1.438.04-.015.159-.104.164-.016zm12.681 12.86c-.321-.055-.42.357-.537.572-.154.44-.466.855-.456 1.333.003.243.313.136.364-.03.219-.457.435-.922.63-1.393.026-.137.15-.39 0-.483zm-15.14-13.66c-.69.096-1.314.498-2.022.459-.326.059-.726.005-.962.289-.036.276.335.265.514.224.786-.11 1.637-.11 2.31-.586.174-.032.38-.223.22-.394l-.044.006-.016.002zm7.103 8.429c-.02.17-.314.078-.345-.003.108-.045.24-.058.345.003zm7.07 7.794c-.293-.083-.336.493-.028.426.16-.061.193-.356.028-.426zm-7.188-6.909c.419.418.183 1.124-.238 1.448-.32.246-.733.465-1.149.414-.214-.022-.17-.304-.36-.366-.166-.105-.474-.083-.532-.307.197-.528.804-.718 1.218-1.052.26-.223.696-.486 1.002-.19l.06.053zm3.87 8.671c.305.299.252.92-.149 1.1-.474-.01-.711-.512-1.107-.707-.356-.26-.879-.303-1.22.003-.856.527-1.556 1.28-2.096 2.121-.247.35-.674.551-1.1.477-.553-.003-1.123-.527-.946-1.104.118-.413.513-.894.98-.77.23.145.042.439-.106.564-.226.159-.079.622.212.529.54-.338.727-1.007 1.061-1.513.526-.823 1.422-1.489 2.425-1.526.747.02 1.503.306 2.045.826zm-5.712-5.564c.446.441.122 1.363-.502 1.403-.64-.16-.897-1.113-.453-1.594.293-.238.723-.032.955.191zm-2.028-.355c.359.525.073 1.302.587 1.757.127.103.247.315.054.421-.236.27-.207.807-.642.866-.32-.01-.602-.211-.922-.235-.368-.196-.363-.688-.34-1.05-.086-.132-.29-.32-.08-.453a9.616 9.616 0 0 1 1.332-1.315l.01.008h.001zm5.945 7.168c.272.303.215.918-.179 1.08-.328-.07-.603-.397-.644-.73-.067-.443.546-.624.823-.35zm-13.882-13.393c.212.21.29.723-.067.826-.453-.023-.805-.409-1.094-.715.304-.277.819-.365 1.161-.11zm8.254 10.343c.162.136.2.497-.091.504-.595.172-.98.804-.937 1.403-.02.207-.222.393-.429.265-.549-.242-.778-.99-.538-1.523.203-.316.771-.317.823-.735-.101-.26-.443-.112-.632-.063-.402.12-.719.427-.896.797-.347.22-.815-.082-.937-.432-.266-.728.414-1.651 1.206-1.48.375.077.474.522.8.684.442.348 1.08.174 1.526.482.038.029.069.066.105.098zm4.062 4.313c.19.34.492.659.434 1.076.044.466-.097 1.044-.594 1.196-.476.18-1.176-.093-1.204-.653.027-.397.527-.494.692-.82.251-.24.352-.635.672-.8zm-3.265-2.971c.32.289.488.933.057 1.204-.2.15-.571.227-.674-.074-.244-.327-.392-.895-.011-1.18.19-.122.47-.114.628.05zm-1.315 1.655c.314.274.179.943-.28.932-.486.046-1.138-.257-1.143-.804.027-.305.44-.283.662-.338.271-.106.561.012.76.21zm2.286 2.832c.284.315.301.788.61 1.086.068.16-.023.376-.215.383-.226.085-.55.328-.74.046-.209-.203-.627-.206-.683-.55-.106-.44.078-1.05.584-1.12a.573.573 0 0 1 .444.155zm-4.754-4.326c.327.472.482 1.108.302 1.648-.273.122-.589.015-.864-.045-.285-.17-.408-.52-.506-.816-.032-.466.412-1.016.911-.897.06.024.123.052.157.11zm-1.522-1.462c.044.27.19.534.312.752-.194.388-.58.702-.607 1.166-.14.768.207 1.57.796 2.064.097.557.027 1.249.53 1.636.098.117.323.184.348.334a1.96 1.96 0 0 0-.266.693c-.132.443-.263.888-.327 1.345-.778-.48-1.232-1.315-1.868-1.952a33.332 33.332 0 0 0-5.085-4.643c-.475-.393-.976-.765-1.448-1.151-.123-.187-.397-.37-.34-.61.319-.148.634.124.925.199.236-.03.415-.212.638-.253.424-.36 1.028-.21 1.503-.058.329.203.565.542.943.666.758.35 1.695.314 2.387-.16.36-.143.676.234 1.043.117a1.71 1.71 0 0 0 .504-.197l.01.043.002.01zm4.938 5.082c.139.213-.17.42-.367.328-.381-.019-.808-.164-1.003-.507.15-.256.466-.342.739-.414.174.233.39.434.63.593zm-.468.998c.053.395-.157.778-.459 1.025-.394-.072-.764-.387-.868-.767-.01-.192-.063-.477.123-.59.409.025.849.142 1.204.332zm-1.733-1.54c.206.25-.074.612-.366.591-.646.07-1.308-.65-1.025-1.278.124-.278.52-.236.652.02.23.24.483.456.739.667z" fill="#070000"/>
  </g>
</svg>
