<svg xmlns="http://www.w3.org/2000/svg" width="41.454" height="41.454">
  <g transform="rotate(-45 -200.741 442.392)">
    <circle transform="rotate(.135)" cx="254.733" cy="300.231" r="20.354" stroke="#030000" stroke-width=".75" fill="none"/>
    <path d="M267.44 291c-.597-.544-1.32-.928-1.94-1.445-.715-.545-1.425-1.11-2.204-1.558-.2-.085-.457-.113-.622.054-.627.293-1.348.15-2.004.314-.89.296-1.636.895-2.474 1.307-.206.126-.443.193-.684.136-.634-.068-1.252-.251-1.846-.474-.26-.094-.595-.09-.763.164-.399.593-.558 1.305-.801 1.968-.237.781-.557 1.54-.735 2.336-.173.69-.68 1.31-.61 2.054.07.322.214.625.243.957.033.35.119.721.003 1.063-.193.256-.564.235-.849.295a6.694 6.694 0 0 0-1.04.177c-.463-.055-.83-.4-1.179-.683-.464-.436-.955-.91-1.157-1.53-.058-.2-.064-.464-.344-.395-.302-.02-.631-.055-.866-.263-.164-.041-.187.217-.204.329-.116.498-.632.735-1.043.933-.762.464-1.432 1.076-2.215 1.51-.398.218-.591.68-1.012.869-.405.22-.874.248-1.323.315-.72.746-1.518 1.432-2.141 2.26-.034.064-.156.188-.013.192.651.175 1.332.291 2.012.259.142-.025.224-.196.384-.193.357-.027.536.363.628.65.257.76.087 1.57.257 2.344.192.69.277 1.402.262 2.119.011.208.258.322.37.49.694.742 1.392 1.491 1.98 2.317.21.263.505.494.856.477.116.003.2.099.183.212.08.263.216.511.31.767.7.82 1.473 1.584 2.267 2.315.068.069.142.138.23.053.472-.324.908-.724 1.446-.945.225-.071.412-.208.61-.327a3.678 3.678 0 0 1 1.565-.296c.149-.43.096-.884.15-1.322.001-.155.13-.255.18-.385.015-.294.274-.506.4-.76.507-.758 1.149-1.421 1.747-2.11.248-.276.569-.648.983-.537.62.177 1.025.74 1.59 1.008.598.274 1.266.178 1.888.057.614-.112 1.274-.11 1.846-.378.553-.311.683-.992 1.072-1.449.507-.51 1.229-.696 1.886-.932.662-.225 1.351-.38 2.011-.606.184-.112.16-.38.265-.548.298-.637.478-1.32.69-1.985.152-.448.397-.862.653-1.257.262-.232.146-.613.035-.885-.336-.78-.798-1.535-.911-2.387-.046-.292.117-.551.297-.768.202-.27.404-.616.27-.961-.206-.7-.695-1.343-.66-2.093.053-.741.535-1.42.46-2.172-.039-.26-.202-.48-.389-.658zm-3.274-.74c.201.211.218.54.451.733.36.378.876.725.91 1.294.016.25.008.532-.192.712-.589.66-1.29 1.206-1.98 1.756-.542-.41-.97-1.038-.95-1.737-.011-.486.307-.979.793-1.091.038-.027.262-.065.143-.107a13.663 13.663 0 0 0-2.198-.776c-.422-.107-.908-.064-1.273-.324-.198-.14-.102-.422.082-.523.435-.31 1.017-.325 1.437-.656.396-.172.862-.247 1.283-.123.44.282.891.55 1.372.758.043.026.086.05.122.084zm1.73 3.775c.263.288.226.723.309 1.084.041.409.134.817.156 1.225-.17.491-.516.908-.863 1.29-.261.262-.53.54-.63.905-.144.323-.552.281-.843.278-.47-.043-.929.101-1.372.251-.36.06-.761.164-1.108-.003-.267-.175-.27-.55-.25-.834.04-.174.115-.436.327-.453.115.066.235.133.378.127a5.352 5.352 0 0 0 2.15-.401c.146-.066.364-.167.281-.371-.071-.376-.166-.775-.408-1.081-.186-.155-.124-.427.021-.586.474-.6 1.046-1.116 1.566-1.676.095.082.192.162.286.245zm-4.474-2.253c.346.334.42.83.601 1.253.259.282.219.7.275 1.058-.03.144.13.458-.028.488-.115.053-.517-.081-.415.11.087.167.121.359.149.536.272.368.6.72.978.976.314-.043.49.308.522.57a.613.613 0 0 1-.381.682c-.537.246-1.154-.051-1.562-.419-.481-.422-.766-1.023-.85-1.649-.157-.571-.332-1.165-.64-1.674-.043-.04-.171-.128-.14-.006a4 4 0 0 1-.092 1.546c-.078.209-.343.097-.471.002-.53-.326-.9-.871-1.415-1.204-.113-.07-.063.14-.062.193.072.35.119.702.13 1.055.12.269.426.411.628.62.708.623 1.41 1.318 1.752 2.213.116.223.323.396.38.653.17.559.213 1.196-.065 1.727-.097.2-.036.42-.072.627-.17.441-.65.653-1.052.84-.752.297-1.59.512-2.396.351-.298-.081-.56-.282-.882-.284-.241.008-.48-.061-.708-.129-.27.139-.33.493-.554.69-.35.33-.822.437-1.228.665-.424.284-.772.709-1.282.844-.272.1-.585.06-.828.247-.368.234-.76.504-.96.901.015.22-.084.504-.343.518-.314.008-.488-.325-.638-.552-.323-.532-.419-1.17-.778-1.685a6.365 6.365 0 0 1-.56-.976c-.155-.185-.322-.386-.318-.64-.016-.598.311-1.218.839-1.513.445-.174.923-.274 1.38-.414.482-.123.981-.137 1.464-.29.59-.169 1.194-.272 1.796-.362.28-.041.31-.366.316-.588.04-1.06-.167-2.2.358-3.17.593-1.123 1.183-2.25 1.812-3.35.127-.366.44-.654.82-.735.877-.207 1.788-.124 2.682-.116.575.045 1.205-.021 1.715.292.044.03.084.063.123.099zm-3.524 2.253h-.002.002zm8.79 5.033c.357.336.392.914.126 1.318-.506.944-1.623 1.525-2.683 1.367-.473-.052-.975.049-1.411-.183-.398-.213-.879-.473-.989-.95-.051-.352.321-.569.621-.621.519-.106 1.052-.026 1.571-.15.744-.153 1.529-.356 2.094-.882.213-.148.5-.074.671.1zm-.393 3.756c.223.19.139.528-.058.701-.266.261-.61.43-.919.625-.477.164-1.001.132-1.493.231a2.567 2.567 0 0 1-1.044-.344c-.245-.208-.268-.562-.362-.85-.061-.199-.031-.48.202-.55.497-.138 1.02-.067 1.532-.109.671 0 1.397-.124 2.014.2a.75.75 0 0 1 .128.096zm-5.019.307c.39.393.342 1.017.166 1.5-.134.45-.159.968-.52 1.311-.376.41-.94.515-1.464.584-.149.004-.26.089-.394.128-.503.026-.971-.22-1.406-.447-.302-.179-.636-.388-.744-.74-.207-.344-.794-.38-1-.013-.202.288-.583.263-.862.429-.412.183-.78.444-1.106.752-.343.28-.848.24-1.161.571-.386.378-.946.604-1.484.531-.437-.109-.668-.638-.543-1.051-.064-.183-.312-.246-.344-.456-.081-.355.286-.607.585-.684.518-.09.985-.325 1.477-.497a1.41 1.41 0 0 1 .871-.044c.158.035.268-.106.428-.087.325-.005.684-.002.937-.243.15-.13.37-.204.457-.387-.038-.195-.066-.44.124-.569.402-.266.918-.233 1.382-.26.599.009 1.201.018 1.791-.092.766-.066 1.555-.06 2.28-.355a.536.536 0 0 1 .53.119zm-13.623-4.82c.22.184.072.484-.05.68-.239.367-.44.75-.562 1.168-.126.275-.363.477-.485.755-.29.533-.58 1.065-.738 1.651-.121.42-.28.839-.332 1.267.156.286.435.498.626.767.195.234.426.494.662.657.03-.236.099-.565.388-.609.432-.04.756.36.925.714.076.212.152.422.32.578.357.483.515 1.096.916 1.548.344.257.507.683.74 1.028.161.46.581.752.919 1.08.235-.197.54-.51.877-.373.274.15.22.506.241.766.012.15.138.27.1.434-.02.287-.078.687-.415.762-.83.207-1.702.15-2.551.226-.27.044-.673.004-.74-.324 0-.121.028-.255-.1-.327-.36-.339-.857-.56-1.113-.996-.14-.389-.57-.536-.824-.838-.755-.712-1.42-1.517-2.184-2.215-.084-.111-.237.014-.32-.109-.223-.304-.186-.717-.152-1.073.032-.39.296-.708.332-1.1.131-.687.096-1.385.02-2.076a9.602 9.602 0 0 1 .124-1.767c.133-.808.812-1.353 1.352-1.913.335-.298.64-.701 1.102-.788.349-.033.662.225.922.426z" fill="#010101"/>
  </g>
</svg>
