<svg xmlns="http://www.w3.org/2000/svg" width="41.454" height="41.454">
  <g transform="rotate(-45 -178.012 497.266)">
    <circle transform="rotate(.135)" cx="300.192" cy="300.123" r="20.354" stroke="#030000" stroke-width=".75" fill="none"/>
    <path d="M309.954 290.387c-2.238-1.971-4.787-3.888-7.794-4.384-3.885-.58-7.832 1.773-9.366 5.331-.799 1.235-.57 2.915-1.538 4.012-.889.95-2.11 1.872-2.303 3.2.272 1.42.254 3.042-1.044 3.97-1.39 1.375-3.027 2.81-3.297 4.868-.202 1.764.36 3.588 1.599 4.892 1.495 1.754 3.439 3.501 5.89 3.446 1.977.25 3.498-1.36 4.835-2.567 1.12-1.112 2.655-1.954 4.29-1.693 1.744-.051 3.244-1.285 4.141-2.704 1.194-.566 2.677-.444 3.859-1.155 3.484-1.572 5.529-5.514 5.112-9.284-.248-2.477-1.748-4.604-3.174-6.57a14.548 14.548 0 0 0-1.21-1.362zm-.666.708c1.767 1.82 3.263 4.002 4.02 6.434.857 3.75-1.233 7.963-4.813 9.408-.53.438-2.685.818-1.42-.335 1.316-1.322 3.547-1.787 4.197-3.714-.791-1.028-1.684 1.43-2.692 1.535-1.603.72-2.78 2.037-3.737 3.47-.897 1.164-1.988 2.905-3.722 2.49-1.525-.475-3.19-1.63-4.792-.8-1.115 1.105-2.264-.507-3.112-1.174-1.018-1.047-2.191-2.042-2.852-3.36.798-1.293.967-2.994.205-4.383-.748-1.133-.848-2.718.242-3.663 1.55-1.635 3.91-2.486 4.897-4.634.14-1.289 2.5-1.952 1.95-3.139-1.617.32-2.313 2.099-3.159 3.338-.312.658-2.12 2.363-1.492.569.928-2.598 2.744-5.093 5.502-5.902 2.562-.914 5.386-.156 7.588 1.324a18.596 18.596 0 0 1 3.19 2.536zm-10.655 6.476c-1.083-.85-2.136-1.906-3.468-2.316-1.483-.076-2.073 1.636-2.352 2.82-.434 1.564 1.145 2.985 2.659 2.503 1.257-.157 3.047-.292 3.393-1.794.072-.402.09-.903-.232-1.213zm3.917 3.961c-1.09-.42-2.142.518-2.378 1.554-.28 1.22-.83 2.713-.037 3.852 1.171 1.177 3.085.54 4.286-.232 1.323-.876.408-2.584-.424-3.469-.44-.606-.949-1.15-1.447-1.705zm-5.43 1.106c-1.67-.382-3.352.634-4.197 2.04-.437.858 1.08 1.14 1.543.77.893-.926 1.893-1.773 2.653-2.81zm.584.588c-1.082.78-1.946 1.825-2.916 2.739-.184.824.323 2.237 1.27 1.224 1.165-.957 1.98-2.428 1.646-3.963zm1.128 7.448c-1.141.805-2.411 1.605-3.374 2.696-1.62 1.903-4.805 1.876-6.6.204-1.778-1.442-3.734-3.437-3.32-5.927.136-1.694 1.44-2.827 2.538-3.962.67-.6 1.105-1.574 1.606-2.162-.366 1.547-1.388 2.824-2.21 4.144-.428 2.15 1.218 4.008 2.682 5.374 1.156 1.078 2.714 2.244 4.378 1.806 1.43-.696 2.67-1.956 4.284-2.183l.017.01zm-8.727-8.201c.257 1.264-.752 2.509-1.675 3.305-1.1.587.454-1.373.65-1.815.366-.426.564-1.293 1.025-1.49zm7.51 7.773c-.842.815-2.172 1.603-3.317 2.073.608-1.06 1.857-1.86 3.065-2.117l.252.044zm-7.678-5.013c.407.877-1.495 1.277-.59.136.117-.172.41-.33.59-.136zm5.11 5.172c.527.851-1.621 1.148-.63.151.152-.142.423-.314.63-.151zm-4.557-4.337c.682.76-1.67 1.706-.766.37.172-.173.49-.662.766-.37zm3.69 3.741c.545.97-2.02 1.368-.732.222.188-.152.492-.494.733-.222zm-2.978-2.888c.394 1.015-1.936 1.52-.76.26.19-.161.504-.437.76-.26zm2.156 2.192c.517.968-1.901 1.444-.561.297.145-.071.347-.469.56-.297zm-.67-.647c.296.961-1.786 1.541-.855.23.207-.237.547-.428.855-.23zm-.807-.758c.473.877-1.824 1.66-.87.373.225-.153.567-.679.87-.373zm2.099 3.883c.416.954-1.865.94-.581.003.168-.11.419-.167.58-.003zm-5.217-5.209c.465.98-1.55 1.144-.548.07.134-.133.392-.224.548-.07zm.458.89c.65.832-1.497 1.541-.735.373.184-.135.46-.55.735-.372zm3.789 3.814c.325 1.123-2.04.946-.636.05.184-.116.439-.205.636-.05zm-.921-.69c.49.966-1.806 1.384-.623.339.162-.088.398-.5.623-.34zm-.807-.694c.443.948-1.587 1.602-.733.304.188-.166.457-.432.733-.304zm-1.473-1.434c.521 1.101-1.692.99-.595.114.144-.101.421-.293.595-.114zm.715.79c.468.87-1.707 1.296-.695.181.173-.157.473-.436.695-.18z" fill="#0a0000"/>
  </g>
</svg>
