<svg xmlns="http://www.w3.org/2000/svg" width="41.454" height="41.454">
  <g transform="rotate(-45 -278.344 410.248)">
    <circle transform="rotate(.135)" cx="209.382" cy="345.797" r="20.354" stroke="#030000" stroke-width=".75" fill="none"/>
    <path d="M217.332 338.953a15.83 15.83 0 0 0-.49-.484c-1.575-1.466-3.521-2.451-5.462-3.342-3.1-1.334-6.538-1.698-9.875-1.377-1.213.123-2.492-.155-3.67.24-.26.377.117.78.492.824 1.967.465 3.988-.13 5.98 0 4.126.092 8.27 1.59 11.414 4.296 1.75 1.559 3.122 3.533 3.933 5.732.876 2.514.834 5.226.677 7.845-.042 1.478.188 3.002.882 4.316.195.34.722.388.885-.005.254-.549-.195-1.09-.234-1.637-.297-1.17-.308-2.373-.2-3.57.12-3.036-.013-6.244-1.545-8.948a16.922 16.922 0 0 0-2.787-3.89zm-4.321 3.077a28.573 28.573 0 0 0-.657-.653c-1.925-1.928-4.385-3.271-6.986-4.014-2.58-.812-5.301-.148-7.928-.205-.914-.452-2.06.163-2.334 1.114-.363.908-.062 2.002.693 2.62 1.12 1.311 1.48 3.033 1.852 4.664.698 2.283 2.08 4.31 3.634 6.104 1.664 1.81 3.512 3.528 5.742 4.584.404.22.825.406 1.26.557-2.176-.664-3.944-2.167-5.678-3.58-1.636-1.421-2.898-3.197-3.964-5.07-.64-1.012-1.184-2.09-1.353-3.291-.323-1.421-.886-2.872-2.014-3.858-.427.843.045 1.756.503 2.475.431.616.53 1.379.602 2.102.364 1.606 1.39 2.952 2.146 4.386.977 1.46 2.174 2.781 3.45 3.988 1.808 1.56 3.779 3.053 6.086 3.766 1.15.378 2.36.493 3.558.54.826.113 1.854.481 2.551-.164.228-.16.028-.466-.218-.421-.81-.241-1.657-.307-2.498-.356.896-.03 1.832-.107 2.67-.425.422-.336 1.189-.403 1.48.123.427.56.18 1.502.844 1.906.444.126.668-.413.671-.772.098-.533-.192-1.02-.29-1.522-.361-3.057.689-6.207-.305-9.186-.663-2.087-2.002-3.855-3.517-5.412zm-.653 1.05c.888.896 1.87 1.931 1.877 3.274.342 3.752-2.912 7.452-6.696 7.474-1.192.068-2.58-.027-3.386-1.053-1.358-1.314-2.758-2.662-3.657-4.337-.553-1.53-.138-3.245.491-4.689 1.194-2.43 3.853-4.006 6.555-3.964 1.318-.05 2.37.948 3.268 1.8.503.513 1.035.993 1.548 1.496zm2.897 4.485l.023.067.014.03c.799 2.31.183 4.78.17 7.156-.15.675-.986.865-1.583.937-1.06.182-2.114.491-3.192.312a8.879 8.879 0 0 1-3.452-1.157c2.51-.053 4.968-1.312 6.442-3.37.876-1.157 1.397-2.547 1.578-3.975zm-8.927-8.62c.006.006 0 .009-.03.008-2.836.392-5.5 2.334-6.464 5.076a10.151 10.151 0 0 0-.571 2.297c-.395-1.004-.612-2.07-.86-3.115-.105-.697.089-1.444.6-1.94.97-1.44 2.36-2.897 4.199-3.006 1.007.006 1.998.384 2.977.628-.005.009.13.038.149.052zm4.289 4.392c-1.713-1.662-4.812-1.738-6.434.096-1.935 1.723-1.854 5.145.184 6.754 1.551 1.42 4.063 1.463 5.712.192 1.936-1.433 2.507-4.43 1.086-6.409a4.097 4.097 0 0 0-.548-.633zm-.76 3.48a.573.573 0 1 1-.811.808.573.573 0 0 1 .811-.809zm-10.312-8.11l-.037.037c-.741.707-1.343 1.535-1.936 2.364-.584-.665-1.398-1.395-1.281-2.36.033-.19.198-.523.428-.346.928.202 1.88.307 2.826.305z" fill="#161616"/>
  </g>
</svg>
